<svg width="235" height="100" viewBox="0 0 235 100" fill="none" xmlns="http://www.w3.org/2000/svg">
<path d="M127.416 56.4474C126.786 56.4505 126.16 56.3349 125.572 56.1066C125.004 55.8868 124.486 55.5543 124.049 55.1288C123.597 54.6795 123.237 54.1448 122.99 53.5554C122.743 52.966 122.614 52.3333 122.609 51.6936C122.605 51.0539 122.726 50.4196 122.966 49.827C123.205 49.2344 123.558 48.695 124.004 48.2398L124.049 48.1949C124.486 47.7666 125.004 47.4311 125.572 47.2082C126.166 46.9777 126.798 46.8621 127.434 46.8674C128.234 46.8635 129.024 47.0478 129.741 47.4056C130.042 47.55 130.321 47.7373 130.57 47.9617C130.78 48.151 130.961 48.3719 131.104 48.6165L130.73 49.7378C130.566 49.5137 130.375 49.3117 130.16 49.1368C129.927 48.9415 129.673 48.7731 129.403 48.6345C129.121 48.4845 128.822 48.37 128.512 48.2936C128.189 48.2103 127.857 48.1681 127.523 48.168C127.011 48.161 126.502 48.243 126.018 48.4102C125.584 48.5579 125.186 48.7963 124.851 49.1099C124.528 49.418 124.273 49.7908 124.102 50.2042C123.921 50.6663 123.833 51.1605 123.844 51.6574C123.838 52.1576 123.929 52.6543 124.111 53.1195C124.277 53.538 124.536 53.9125 124.868 54.2139C125.209 54.5165 125.606 54.7482 126.035 54.8956C126.52 55.0628 127.029 55.1448 127.541 55.1378C128.23 55.152 128.913 54.9949 129.527 54.6803C130.045 54.4274 130.495 54.0519 130.837 53.586L131.193 54.6893C130.724 55.2361 130.145 55.6758 129.493 55.979C128.842 56.2822 128.134 56.4419 127.416 56.4474Z" fill="#50287D"/>
<path d="M139.718 47.0273V48.3011H136.618V56.2396H135.425V48.2921H132.289V47.0273H139.727H139.718Z" fill="#50287D"/>
<path d="M147.291 49.8449C147.296 50.2294 147.223 50.6109 147.077 50.9661C146.944 51.3004 146.747 51.6051 146.498 51.8631C146.246 52.1178 145.942 52.3137 145.607 52.4372C145.232 52.5713 144.837 52.6381 144.44 52.6346H142.756V56.2226H141.562V47.0283H144.44C144.812 47.0186 145.183 47.0845 145.53 47.222C145.876 47.3594 146.192 47.5657 146.458 47.8284C146.724 48.0912 146.935 48.4051 147.078 48.7515C147.221 49.0979 147.293 49.4697 147.291 49.8449ZM146.043 49.8449C146.047 49.6444 146.007 49.4455 145.928 49.2618C145.856 49.0862 145.753 48.9251 145.625 48.7864C145.494 48.6516 145.34 48.5421 145.17 48.4635C144.989 48.3771 144.792 48.3312 144.591 48.3289H142.712V51.3698H144.591C144.79 51.3835 144.99 51.3537 145.176 51.2824C145.362 51.2111 145.531 51.1001 145.671 50.9569C145.81 50.8137 145.918 50.6418 145.985 50.4529C146.052 50.2641 146.078 50.0628 146.061 49.8628L146.043 49.8449Z" fill="#50287D"/>
<path d="M149.768 54.0958L148.878 56.2486H147.586L151.408 47.0273H152.735L156.503 56.2486H155.211L154.321 54.0958H149.777H149.768ZM153.777 52.822L151.995 48.5702L150.214 52.822H153.706H153.777Z" fill="#50287D"/>
<path d="M157.312 56.2415L160.564 51.4694L157.491 46.9844H158.996L161.294 50.3212L163.62 47.0113H165.116L162.043 51.4963L165.33 56.2684H163.878L161.339 52.6804L158.845 56.2684H157.321L157.312 56.2415Z" fill="#50287D"/>
<path d="M171.092 56.418C170.454 56.4249 169.821 56.3029 169.23 56.0592C168.659 55.8234 168.134 55.4862 167.68 55.0635C167.224 54.6375 166.86 54.1215 166.611 53.5476C166.355 52.939 166.223 52.2846 166.223 51.6235C166.223 50.9623 166.355 50.308 166.611 49.6994C166.861 49.1256 167.225 48.6096 167.68 48.1834C168.133 47.7685 168.655 47.4375 169.222 47.2057C170.427 46.7283 171.767 46.7283 172.972 47.2057C173.558 47.4345 174.099 47.7688 174.566 48.1924C175.022 48.6189 175.386 49.1348 175.635 49.7084C175.893 50.3148 176.023 50.9684 176.018 51.628C175.986 52.9176 175.451 54.1426 174.529 55.0387C173.608 55.9348 172.373 56.4302 171.092 56.418ZM174.745 51.6638C174.747 51.1932 174.646 50.7278 174.451 50.3004C174.264 49.8794 173.997 49.5 173.663 49.1843C173.33 48.8686 172.937 48.6229 172.509 48.4615C171.57 48.1023 170.534 48.1023 169.596 48.4615C169.167 48.6259 168.775 48.8749 168.443 49.1937C168.111 49.5125 167.846 49.8949 167.663 50.3183C167.476 50.7422 167.38 51.2004 167.38 51.6638C167.38 52.1272 167.476 52.5855 167.663 53.0094C167.848 53.4306 168.116 53.8102 168.449 54.126C168.783 54.4418 169.176 54.6873 169.605 54.8482C170.543 55.2066 171.579 55.2066 172.518 54.8482C172.945 54.6859 173.335 54.4397 173.667 54.124C173.999 53.8084 174.265 53.4295 174.451 53.0094C174.646 52.582 174.747 52.1166 174.745 51.6459V51.6638Z" fill="#50287D"/>
<path d="M182.832 51.3244C183.198 51.5179 183.505 51.8058 183.723 52.1586C183.978 52.5661 184.109 53.0404 184.097 53.5221C184.104 53.9249 184.028 54.3249 183.875 54.6971C183.737 55.0248 183.527 55.3164 183.26 55.5493C183.001 55.781 182.698 55.9579 182.369 56.0696C182.004 56.188 181.622 56.2486 181.238 56.249H178.129V47.0277H180.801C181.185 47.0223 181.566 47.0768 181.933 47.1892C182.259 47.289 182.562 47.4537 182.824 47.6736C183.211 48.0336 183.475 48.5076 183.579 49.0278C183.683 49.548 183.621 50.0881 183.403 50.5709C183.265 50.8554 183.067 51.1063 182.824 51.3064L182.832 51.3244ZM181.407 54.9124C181.601 54.9134 181.794 54.88 181.977 54.8137C182.154 54.7516 182.316 54.6505 182.449 54.5177C182.583 54.3863 182.692 54.2313 182.77 54.0603C182.856 53.8779 182.901 53.679 182.904 53.4772C182.903 53.2976 182.867 53.12 182.797 52.955C182.726 52.79 182.623 52.6412 182.494 52.5174C182.359 52.38 182.198 52.2717 182.02 52.1992C181.843 52.1267 181.652 52.0915 181.461 52.0958H179.323V54.8945L181.407 54.9124ZM181.033 50.8221C181.387 50.8291 181.731 50.7081 182.004 50.4812C182.136 50.3727 182.242 50.2357 182.314 50.0805C182.387 49.9253 182.424 49.7557 182.423 49.5842C182.423 49.4154 182.388 49.2484 182.321 49.094C182.253 48.9395 182.155 48.8009 182.031 48.6872C181.899 48.5621 181.743 48.4644 181.574 48.3997C181.404 48.3351 181.223 48.3047 181.042 48.3104H179.323V50.9118L181.033 50.8221Z" fill="#50287D"/>
<path d="M187.53 54.0958L186.639 56.2486H185.348L189.116 47.0273H190.443L194.22 56.2486H192.929L192.038 54.0958H187.486H187.53ZM191.539 52.822L189.757 48.5702L187.976 52.822H191.468H191.539Z" fill="#50287D"/>
<path d="M197.221 47.0273V50.8576H202.673V47.0273H203.875V56.2396H202.682V52.1134H197.221V56.2396H196.027V47.0273H197.221Z" fill="#50287D"/>
<path d="M213.49 56.2396V48.929L208.091 56.2396H206.746V47.0273H207.949V54.3559L213.383 47.0273H214.657V56.2396H213.463H213.49Z" fill="#50287D"/>
<path d="M222.724 47.0273V48.3011H218.76V50.8576H222.323V52.1134H218.76V54.9659H222.724V56.2396H217.566V47.0273H222.724Z" fill="#50287D"/>
<path d="M19.0039 47.264C19.0075 47.8169 18.9046 48.3652 18.701 48.8786C18.4981 49.3573 18.1941 49.7858 17.8102 50.1344C17.433 50.4884 16.9913 50.7656 16.5096 50.9507C15.9747 51.154 15.4066 51.2544 14.8349 51.2467H13.2314V56.2431H11.1914V43.1916H14.8616C15.4038 43.1669 15.9452 43.2546 16.4524 43.4492C16.9596 43.6438 17.4216 43.9413 17.81 44.3231C18.1983 44.7049 18.5047 45.1629 18.7101 45.6688C18.9154 46.1746 19.0154 46.7176 19.0039 47.264ZM13.2314 49.058H15.111C15.3466 49.0653 15.5813 49.0255 15.8015 48.9408C16.0217 48.8561 16.223 48.7283 16.3938 48.5647C16.5579 48.399 16.6868 48.2014 16.7726 47.984C16.8583 47.7665 16.8992 47.5338 16.8927 47.2999C16.8999 47.0626 16.8603 46.8263 16.7762 46.6046C16.6921 46.3829 16.5652 46.1801 16.4027 46.0082C16.2378 45.8342 16.0383 45.6972 15.8173 45.6061C15.5963 45.5149 15.3587 45.4716 15.1199 45.4789H13.2314V49.067V49.058Z" fill="#50287D"/>
<path d="M32.7304 50.4371H37.1311V47.0195H39.0998V56.2318H37.1311V52.5451H32.7304V56.2408H30.7617V47.0285H32.7304V50.4461V50.4371Z" fill="#50287D"/>
<path d="M46.19 54.511C46.7219 54.5272 47.2508 54.4264 47.74 54.2157C48.2293 54.005 48.667 53.6895 49.0228 53.2911L49.6019 54.807C49.1839 55.3241 48.6589 55.7429 48.0634 56.0342C47.4679 56.3255 46.8163 56.4822 46.1544 56.4934C45.5014 56.5084 44.8516 56.3988 44.2391 56.1705C43.6767 55.9704 43.1612 55.6559 42.7247 55.2466C42.2793 54.8158 41.9327 54.2923 41.7092 53.7127C41.4623 53.0691 41.3384 52.3843 41.3439 51.6944C41.3409 51.0605 41.4526 50.4313 41.6735 49.8376C41.875 49.2731 42.1769 48.7503 42.5644 48.2947C42.9639 47.8367 43.4559 47.4698 44.0075 47.2183C44.6053 46.9545 45.2523 46.823 45.9049 46.8326C46.508 46.8224 47.1061 46.9438 47.6582 47.1885C48.2102 47.4331 48.7031 47.7952 49.103 48.2499C49.4975 48.6936 49.8004 49.212 49.9938 49.7748C50.1875 50.3529 50.2868 50.9588 50.2878 51.5688C50.2896 51.8121 50.2717 52.0551 50.2343 52.2954H43.3394C43.4658 52.9506 43.825 53.5369 44.3496 53.9447C44.8743 54.3525 45.5286 54.5538 46.19 54.511ZM45.8248 48.9137C45.2675 48.8726 44.7135 49.0296 44.2594 49.3574C43.8052 49.6852 43.4797 50.1631 43.3394 50.7077H48.3013C48.1566 50.1673 47.8313 49.6937 47.3801 49.3669C46.9289 49.04 46.3796 48.88 45.8248 48.9137Z" fill="#50287D"/>
<path d="M24.5349 54.5117C25.0667 54.5272 25.5954 54.4262 26.0846 54.2155C26.5737 54.0049 27.0115 53.6897 27.3677 53.2917L27.9467 54.8077C27.5288 55.3247 27.0037 55.7436 26.4082 56.0349C25.8127 56.3262 25.1612 56.4829 24.4993 56.4941C23.8463 56.5091 23.1965 56.3995 22.584 56.1711C22.0122 55.9626 21.4902 55.6357 21.0518 55.2113C20.6091 54.7801 20.2656 54.2566 20.0451 53.6775C19.7977 53.034 19.6738 52.3492 19.6799 51.6592C19.6746 51.0258 19.7833 50.3968 20.0006 49.8024C20.2026 49.2382 20.5045 48.7155 20.8914 48.2595C21.2908 47.8013 21.7828 47.4343 22.3346 47.1831C22.9323 46.9193 23.5794 46.7878 24.232 46.7974C24.835 46.7878 25.4329 46.9094 25.9849 47.1541C26.5368 47.3987 27.0298 47.7605 27.4301 48.2147C27.8246 48.6584 28.1274 49.1768 28.3209 49.7396C28.5182 50.317 28.6205 50.923 28.6238 51.5336C28.6262 51.7769 28.6083 52.0199 28.5703 52.2602H21.6843C21.803 52.9219 22.1589 53.5168 22.6844 53.9318C23.2098 54.3468 23.8683 54.5532 24.5349 54.5117ZM24.1696 48.9143C23.6124 48.8732 23.0584 49.0303 22.6043 49.3581C22.1501 49.6859 21.8245 50.1637 21.6843 50.7084H26.6907C26.5449 50.1616 26.2142 49.6831 25.7556 49.3556C25.297 49.0281 24.7392 48.872 24.1786 48.9143H24.1696Z" fill="#50287D"/>
<path d="M66.3847 56.5095C65.1088 56.5095 63.8853 55.9991 62.9832 55.0907C62.081 54.1823 61.5742 52.9503 61.5742 51.6656C61.5742 50.3809 62.081 49.1489 62.9832 48.2405C63.8853 47.3321 65.1088 46.8218 66.3847 46.8218C67.0259 46.8049 67.6623 46.9369 68.2447 47.2075C68.8271 47.4782 69.3398 47.8803 69.7431 48.3825L69.1997 50.0241C68.5011 49.3855 67.6106 49.0003 66.6697 48.9297C66.292 48.8941 65.911 48.9364 65.5501 49.0541C65.1892 49.1719 64.856 49.3625 64.5708 49.6144C64.2856 49.8663 64.0544 50.1742 63.8915 50.5192C63.7285 50.8642 63.6372 51.239 63.6231 51.6208C63.617 51.9969 63.6937 52.3698 63.8478 52.7125C64.0018 53.0553 64.2293 53.3594 64.5139 53.6031C65.1304 54.1316 65.9234 54.4042 66.7321 54.3656C67.7225 54.3506 68.6732 53.9708 69.4045 53.2982L69.9836 54.9397C69.5279 55.4426 68.9716 55.8425 68.3512 56.113C67.7309 56.3836 67.0606 56.5187 66.3847 56.5095Z" fill="#50287D"/>
<path d="M56.5683 56.5095C55.2924 56.5095 54.0689 55.9991 53.1668 55.0907C52.2646 54.1823 51.7578 52.9503 51.7578 51.6656C51.7578 50.3809 52.2646 49.1489 53.1668 48.2405C54.0689 47.3321 55.2924 46.8218 56.5683 46.8218C57.2095 46.8049 57.8459 46.9369 58.4283 47.2075C59.0107 47.4782 59.5234 47.8803 59.9267 48.3825L59.3833 50.0241C58.6847 49.3855 57.7942 49.0003 56.8533 48.9297C56.4756 48.8941 56.0946 48.9364 55.7337 49.0541C55.3728 49.1719 55.0396 49.3625 54.7544 49.6144C54.4692 49.8663 54.238 50.1742 54.0751 50.5192C53.9121 50.8642 53.8208 51.239 53.8067 51.6208C53.8006 51.9969 53.8773 52.3698 54.0313 52.7125C54.1854 53.0553 54.4129 53.3594 54.6975 53.6031C55.314 54.1316 56.107 54.4042 56.9157 54.3656C57.9061 54.3506 58.8568 53.9708 59.5881 53.2982L60.1672 54.9397C59.7115 55.4426 59.1552 55.8425 58.5348 56.113C57.9145 56.3836 57.2442 56.5187 56.5683 56.5095Z" fill="#50287D"/>
<path d="M98.58 56.5094C97.3042 56.5094 96.0806 55.9991 95.1785 55.0907C94.2763 54.1823 93.7695 52.9503 93.7695 51.6656C93.7695 50.3809 94.2763 49.1489 95.1785 48.2405C96.0806 47.3321 97.3042 46.8218 98.58 46.8218C99.2212 46.8049 99.8577 46.9369 100.44 47.2075C101.022 47.4782 101.535 47.8802 101.938 48.3825L101.395 50.0241C100.69 49.3851 99.7933 49.0028 98.8472 48.9387C98.4695 48.903 98.0885 48.9454 97.7276 49.0631C97.3667 49.1808 97.0335 49.3715 96.7483 49.6234C96.4631 49.8753 96.2319 50.1832 96.069 50.5282C95.906 50.8731 95.8147 51.248 95.8006 51.6297C95.7945 52.0059 95.8712 52.3787 96.0252 52.7215C96.1793 53.0643 96.4068 53.3684 96.6914 53.6121C97.3079 54.1405 98.1009 54.4131 98.9096 54.3746C99.9 54.3595 100.851 53.9798 101.582 53.3071L102.161 54.9487C101.706 55.4472 101.152 55.8438 100.535 56.1127C99.9185 56.3816 99.2522 56.5168 98.58 56.5094Z" fill="#50287D"/>
<path d="M78.7931 56.24V55.2802C78.4407 55.6636 78.0136 55.9698 77.5385 56.1797C77.0634 56.3896 76.5504 56.4986 76.0316 56.5001C75.4035 56.509 74.7802 56.3893 74.1996 56.1481C73.6189 55.9069 73.093 55.5493 72.6539 55.097C72.2148 54.6448 71.8716 54.1074 71.6452 53.5174C71.4188 52.9274 71.3139 52.2973 71.3369 51.6652C71.2828 51.0362 71.3612 50.4028 71.5669 49.8064C71.7726 49.21 72.1011 48.6641 72.5308 48.2043C72.9605 47.7445 73.4817 47.3813 74.0604 47.1383C74.6391 46.8954 75.2623 46.7782 75.889 46.7945C76.9592 46.8026 77.9856 47.2231 78.7575 47.9695V47.0725H80.6638V56.24H78.7931ZM73.2878 51.6562C73.2932 52.0265 73.3731 52.3919 73.5227 52.7302C73.6724 53.0684 73.8888 53.3726 74.1586 53.6242C74.4285 53.8758 74.7463 54.0696 75.0927 54.1939C75.4391 54.3182 75.807 54.3704 76.1741 54.3473C76.6531 54.3688 77.1307 54.2817 77.5717 54.0922C78.0128 53.9028 78.4058 53.616 78.7219 53.2529V49.9968C78.3992 49.6427 78.0047 49.3625 77.5651 49.1752C77.1256 48.988 76.6512 48.898 76.1741 48.9114C75.8011 48.8811 75.4259 48.9301 75.0728 49.0552C74.7197 49.1802 74.3967 49.3786 74.1246 49.6373C73.8525 49.8961 73.6374 50.2095 73.4933 50.5573C73.3491 50.9051 73.2791 51.2795 73.2878 51.6562Z" fill="#50287D"/>
<path d="M85.4843 50.4371H89.9385V47.0195H91.9072V56.2318H89.9385V52.5451H85.4843V56.2408H83.5156V47.0285H85.4843V50.4461V50.4371Z" fill="#50287D"/>
<path d="M106.599 53.7031H104.078V56.2417H106.599V53.7031Z" fill="#50287D"/>
<path d="M111.035 52.5464L104.078 39.5039H117.993L111.035 52.5464Z" fill="#D0DF00"/>
</svg>
