<svg width="40" height="40" viewBox="0 0 40 40" fill="none" xmlns="http://www.w3.org/2000/svg">
<path d="M32.443 28.125H24.6875C24.2185 28.125 23.813 27.848 23.6259 27.4491C27.748 25.9363 30.5469 22.0128 30.5469 17.5781C30.5469 15.2188 30.5469 8.45023 30.5469 5.85938C30.5469 3.92086 28.9698 2.34375 27.0312 2.34375C25.9326 0.883203 24.1934 0 22.3438 0H17.6562C15.8066 0 14.0674 0.883203 12.9688 2.34375C11.0302 2.34375 9.45312 3.92086 9.45312 5.85938C9.45312 6.51953 9.45312 11.1349 9.45312 11.7188H4.76562V23.4375H11.2515C12.4712 25.2428 14.2455 26.6679 16.3741 27.4491C16.187 27.848 15.7815 28.125 15.3125 28.125H7.55695L4.76562 33.7077V40H35.2344V33.7077L32.443 28.125ZM7.10938 21.0938V14.0625H9.45312V17.5781C9.45312 18.8024 9.66742 19.9873 10.063 21.0938H7.10938ZM11.7969 5.85938C11.7969 5.2132 12.3226 4.6875 12.9688 4.6875H14.2718L14.6102 4.10242C15.2377 3.01766 16.4049 2.34375 17.6562 2.34375H22.3438C23.5951 2.34375 24.7623 3.01766 25.3898 4.10242L25.7282 4.6875H27.0312C27.6774 4.6875 28.2109 5.2132 28.2109 5.85938C28.2109 5.85938 28.2095 11.0244 28.2109 11.5175C27.3151 11.2003 26.5587 10.5265 26.1596 9.62766L25.5777 8.31672L24.4091 9.14828C21.7718 11.0249 18.2281 11.0249 15.5909 9.14828L14.4223 8.31672L13.8403 9.62766C13.4413 10.5265 12.6927 11.2003 11.7968 11.5175C11.7969 10.6634 11.7969 6.665 11.7969 5.85938ZM18.8281 37.6562H7.10938V34.261L9.00555 30.4688H15.3125C15.7233 30.4688 16.1176 30.3973 16.4844 30.2672V32.126L18.8281 34.4698V37.6562ZM18.8281 31.1552C18.8281 30.0526 18.8281 26.8493 18.8281 25.7182L17.9518 25.4898C16.5374 25.1212 15.2907 24.3997 14.2948 23.4375H18.8281V21.0938H12.6001C12.0835 20.0203 11.7969 18.8255 11.7969 17.5781V13.9437C13.1985 13.6573 14.4496 12.8655 15.3084 11.7251C16.7409 12.4906 18.3408 12.8906 20 12.8906C21.6592 12.8906 23.2591 12.4906 24.6916 11.7251C25.5504 12.8655 26.8015 13.6573 28.2031 13.9437V17.5781C28.2031 21.2919 25.6721 24.5453 22.0482 25.4898L21.1719 25.7182V25.7812C21.1719 26.8502 21.1719 30.0527 21.1719 31.1552L20 32.3271L18.8281 31.1552ZM32.8906 37.6562H21.1719V34.4698L23.5156 32.126V30.2672C23.8824 30.3973 24.2767 30.4688 24.6875 30.4688H30.9945L32.8906 34.261V37.6562Z" fill="#B45055"/>
</svg>
