<svg width="40" height="40" viewBox="0 0 40 40" fill="none" xmlns="http://www.w3.org/2000/svg">
<g clip-path="url(#clip0)">
<path d="M37.6132 24.3484C37.6132 23.9771 37.6132 5.00875 37.6132 4.70165H32.9116V0H25.8591V4.70165H22.3328V0H15.2804V4.70165H11.7541V0H4.70165V4.70165H0V37.6132H24.3484C33.3835 45.1036 45.1005 33.3741 37.6132 24.3484ZM28.2099 2.35083H30.5607V4.70165H28.2099V2.35083ZM17.6312 2.35083H19.982V4.70165H17.6312V2.35083ZM7.05248 2.35083H9.4033V4.70165H7.05248V2.35083ZM2.35083 7.05248H9.4033V9.4033H11.7541V7.05248H19.982V9.4033H22.3328V7.05248H30.5607V9.4033H32.9116V7.05248H35.2624V11.7541H2.35083V7.05248ZM2.35083 14.105H35.2624V22.4197C26.9264 17.6861 17.6875 26.9322 22.4197 35.2624H2.35083V14.105ZM30.5607 37.6132C26.672 37.6132 23.5083 34.4495 23.5083 30.5607C23.8628 21.2175 37.26 21.22 37.6132 30.5608C37.6132 34.4495 34.4495 37.6132 30.5607 37.6132Z" fill="#B45055"/>
<path d="M31.7336 25.8594H29.3828V31.0479L32.0779 33.743L33.7401 32.0808L31.7336 30.0742V25.8594Z" fill="#B45055"/>
<path d="M5.875 16.457H8.22583V18.8079H5.875V16.457Z" fill="#B45055"/>
<path d="M11.7539 16.457H14.1047V18.8079H11.7539V16.457Z" fill="#B45055"/>
<path d="M17.6289 16.457H19.9797V18.8079H17.6289V16.457Z" fill="#B45055"/>
<path d="M5.875 21.1562H8.22583V23.5071H5.875V21.1562Z" fill="#B45055"/>
<path d="M11.7539 21.1562H14.1047V23.5071H11.7539V21.1562Z" fill="#B45055"/>
<path d="M17.6289 21.1562H19.9797V23.5071H17.6289V21.1562Z" fill="#B45055"/>
<path d="M5.875 25.8594H8.22583V28.2102H5.875V25.8594Z" fill="#B45055"/>
<path d="M11.7539 25.8594H14.1047V28.2102H11.7539V25.8594Z" fill="#B45055"/>
<path d="M5.875 30.5625H8.22583V32.9133H5.875V30.5625Z" fill="#B45055"/>
<path d="M11.7539 30.5625H14.1047V32.9133H11.7539V30.5625Z" fill="#B45055"/>
<path d="M23.5078 16.457H25.8586V18.8079H23.5078V16.457Z" fill="#B45055"/>
<path d="M29.3828 16.457H31.7336V18.8079H29.3828V16.457Z" fill="#B45055"/>
</g>
<defs>
<clipPath id="clip0">
<rect width="40" height="40" fill="white"/>
</clipPath>
</defs>
</svg>
