<svg width="40" height="40" viewBox="0 0 40 40" fill="none" xmlns="http://www.w3.org/2000/svg">
<path d="M32.4378 13.7617C32.2688 12.9863 31.8852 12.2489 31.2844 11.647L27.1375 7.49219H17.5088L6.67523 13.7617H0V30.9492H6.39969L9.05594 32.5117H40V13.7617H32.4378ZM32.298 16.1055H37.0198L26.875 22.935L18.8516 17.5335C18.9853 17.071 19.0847 16.5941 19.1459 16.1055H23.5785L25.2031 17.7229C26.0149 18.5348 27.0942 18.9818 28.2423 18.9818C29.3905 18.9818 30.4698 18.5347 31.2816 17.7229C31.7531 17.2515 32.0919 16.6966 32.298 16.1055ZM13.75 23.4548V30.1679H9.69406V30.168L7.03781 28.6055H2.34375V16.1055H7.30453L18.138 9.83594H26.1654L29.6255 13.3028C30.3862 14.0648 30.3857 15.3042 29.6243 16.0656C29.2552 16.4348 28.7645 16.638 28.2424 16.638C27.7204 16.638 27.2296 16.4348 26.8586 16.0638L24.5464 13.7616H16.875V14.9335C16.875 18.8105 13.7208 21.9648 9.84375 21.9648V24.3085C11.2371 24.3085 12.5602 24.0025 13.75 23.4548ZM37.6562 30.168H16.0938V21.915C16.8016 21.2806 17.4128 20.5406 17.9022 19.7198L26.875 25.7603L37.6562 18.5024V30.168Z" fill="#B45055"/>
</svg>
