<svg width="15" height="15" viewBox="0 0 15 15" fill="none" xmlns="http://www.w3.org/2000/svg">
<path d="M12.1875 14.9997H9.6875C9.515 14.9997 9.375 14.8597 9.375 14.6872V10.3122C9.375 10.1397 9.235 9.9997 9.0625 9.9997H5.9375C5.765 9.9997 5.625 10.1397 5.625 10.3122V14.6872C5.625 14.8597 5.485 14.9997 5.3125 14.9997H2.8125C2.29562 14.9997 1.875 14.5791 1.875 14.0622V8.1247H0.625C0.280625 8.1247 0 7.84407 0 7.49969C0 7.33407 0.0675 7.17157 0.185 7.05407L7.28125 0.0890626C7.4025 -0.0296875 7.5975 -0.0296875 7.71875 0.0890626L14.8125 7.05157C14.9325 7.17157 15 7.33407 15 7.49969C15 7.84407 14.7194 8.1247 14.375 8.1247H13.125V14.0622C13.125 14.5791 12.7044 14.9997 12.1875 14.9997ZM10 14.3747H12.1875C12.36 14.3747 12.5 14.2347 12.5 14.0622V7.8122C12.5 7.6397 12.64 7.49969 12.8125 7.49969H14.375L7.5 0.750313L0.625 7.49782L2.1875 7.49969C2.36 7.49969 2.5 7.6397 2.5 7.8122V14.0622C2.5 14.2347 2.64 14.3747 2.8125 14.3747H5V10.3122C5 9.79532 5.42063 9.3747 5.9375 9.3747H9.0625C9.57938 9.3747 10 9.79532 10 10.3122V14.3747Z" fill="#707070"/>
</svg>
