<svg width="40" height="40" viewBox="0 0 40 40" fill="none" xmlns="http://www.w3.org/2000/svg">
<path d="M15.3125 27.0312C15.3125 24.4464 13.2098 22.3438 10.625 22.3438C8.04016 22.3438 5.9375 24.4464 5.9375 27.0312C5.9375 29.6161 8.04016 31.7188 10.625 31.7188C13.2098 31.7188 15.3125 29.6161 15.3125 27.0312ZM10.625 29.375C9.33258 29.375 8.28125 28.3237 8.28125 27.0312C8.28125 25.7388 9.33258 24.6875 10.625 24.6875C11.9174 24.6875 12.9688 25.7388 12.9688 27.0312C12.9688 28.3237 11.9174 29.375 10.625 29.375Z" fill="#B45055"/>
<path d="M34.0625 27.0312C34.0625 24.4464 31.9598 22.3438 29.375 22.3438C26.7902 22.3438 24.6875 24.4464 24.6875 27.0312C24.6875 29.6161 26.7902 31.7188 29.375 31.7188C31.9598 31.7188 34.0625 29.6161 34.0625 27.0312ZM29.375 29.375C28.0826 29.375 27.0312 28.3237 27.0312 27.0312C27.0312 25.7388 28.0826 24.6875 29.375 24.6875C30.6674 24.6875 31.7188 25.7388 31.7188 27.0312C31.7188 28.3237 30.6674 29.375 29.375 29.375Z" fill="#B45055"/>
<path d="M23.5156 1.25H0V12.9688H2.34375V17.6562H5.92285L8.85254 12.9688H16.4844V17.6562H31.0693L33.999 22.3438H37.5781V17.6562H40V5.9375H23.5156V1.25ZM7.55371 10.625L4.6875 15.2109V10.625H2.34375V3.59375H21.1719V5.9375H16.4844V10.625H7.55371ZM37.6562 15.3125H35.2344V19.8984L32.3682 15.3125H18.8281V8.28125H37.6562V15.3125Z" fill="#B45055"/>
<path d="M21.1719 10.625H23.5156V12.9688H21.1719V10.625Z" fill="#B45055"/>
<path d="M27.0312 10.625H29.375V12.9688H27.0312V10.625Z" fill="#B45055"/>
<path d="M32.8906 10.625H35.2344V12.9688H32.8906V10.625Z" fill="#B45055"/>
<path d="M2.42188 37.5781V38.75H18.8281V37.5781C18.8281 34.3472 16.1996 31.7188 12.9688 31.7188H8.28125C5.05035 31.7188 2.42188 34.3472 2.42188 37.5781ZM12.9688 34.0625C14.4968 34.0625 15.7999 35.0421 16.2836 36.4062H4.96643C5.45013 35.0421 6.75323 34.0625 8.28125 34.0625H12.9688Z" fill="#B45055"/>
<path d="M21.1719 37.5781V38.75H37.5781V37.5781C37.5781 34.3472 34.9496 31.7188 31.7188 31.7188H27.0312C23.8004 31.7188 21.1719 34.3472 21.1719 37.5781ZM31.7188 34.0625C33.2468 34.0625 34.5499 35.0421 35.0336 36.4062H23.7164C24.2001 35.0421 25.5032 34.0625 27.0312 34.0625H31.7188Z" fill="#B45055"/>
</svg>
