<svg width="35" height="40" viewBox="0 0 35 40" fill="none" xmlns="http://www.w3.org/2000/svg">
<path d="M34.1421 34.1421C31.3451 36.9392 27.7814 38.844 23.9018 39.6157C20.0222 40.3874 16.0008 39.9913 12.3463 38.4776C8.6918 36.9638 5.56823 34.4004 3.37061 31.1114C1.17298 27.8224 -2.35852e-08 23.9556 0 20C2.35852e-08 16.0444 1.17298 12.1776 3.37061 8.8886C5.56823 5.59962 8.6918 3.03617 12.3463 1.52242C16.0008 0.00866556 20.0222 -0.387401 23.9018 0.384303C27.7814 1.15601 31.3451 3.06082 34.1421 5.85787L28.4853 11.5147C26.807 9.83649 24.6688 8.6936 22.3411 8.23058C20.0133 7.76756 17.6005 8.0052 15.4078 8.91345C13.2151 9.8217 11.3409 11.3598 10.0224 13.3332C8.70378 15.3065 8 17.6266 8 20C8 22.3734 8.70378 24.6935 10.0224 26.6668C11.3409 28.6402 13.2151 30.1783 15.4078 31.0865C17.6005 31.9948 20.0133 32.2324 22.3411 31.7694C24.6688 31.3064 26.807 30.1635 28.4853 28.4853L34.1421 34.1421Z" fill="#B45055"/>
</svg>
