<svg width="40" height="40" viewBox="0 0 40 40" fill="none" xmlns="http://www.w3.org/2000/svg">
<path d="M19.9943 22.0343L23.1983 18.8306H36.0237V2.39062H3.96484V18.8306H16.7902L19.9943 22.0343ZM6.30859 4.73438H33.6799V16.4869H22.2275L19.9943 18.7199L17.761 16.4869H6.30859V4.73438Z" fill="#B45055"/>
<path d="M9.07031 7.08984H30.9159V9.43359H9.07031V7.08984Z" fill="#B45055"/>
<path d="M9.07031 11.7773H13.4217V14.1211H9.07031V11.7773Z" fill="#B45055"/>
<path d="M15.7656 11.7773H30.9154V14.1211H15.7656V11.7773Z" fill="#B45055"/>
<path d="M39.0539 24.8622C37.7203 23.412 35.4516 23.3128 33.9967 24.6414L28.7977 29.5112L26.929 29.513C27.0888 29.1015 27.1765 28.6546 27.1765 28.1873C27.1765 27.2056 26.7939 26.2827 26.0991 25.5889C25.4045 24.8952 24.4798 24.5115 23.4996 24.5147L15.9302 24.5212C14.7684 22.9752 12.925 22.0391 10.9702 22.0391C9.00562 22.0391 7.15688 22.9824 5.99602 24.54L0 24.5518V34.3699H5.61047L11.389 37.6116H30.9315L38.8466 29.9222C39.5466 29.2762 39.9548 28.3972 39.9965 27.4448C40.0384 26.4859 39.7037 25.5687 39.0539 24.8622ZM37.655 27.3424C37.6405 27.6743 37.4973 27.9805 37.2519 28.2045L29.9805 35.2678H12.0015L6.22305 32.0261H2.34375V26.8909L7.29922 26.8812L7.6375 26.3003C8.32609 25.1175 9.60312 24.3828 10.9702 24.3828C12.3309 24.3828 13.605 25.1126 14.2952 26.2873L14.6353 26.8661L23.5018 26.8584H23.5031C23.8581 26.8584 24.1919 26.9966 24.443 27.2473C24.6944 27.4984 24.8328 27.8322 24.8328 28.1873C24.8328 28.919 24.238 29.5145 23.5063 29.5162H14.6961V31.8599L29.7249 31.8541L35.5819 26.3678C36.0861 25.9123 36.8684 25.9479 37.3288 26.4486C37.5536 26.6933 37.6695 27.0106 37.655 27.3424Z" fill="#B45055"/>
</svg>
