<svg id="Слой_1" data-name="Слой 1" xmlns="http://www.w3.org/2000/svg" viewBox="0 0 283.47 48.05"><defs><style>.cls-1{fill:#a25155;}</style></defs><path class="cls-1" d="M129.16,19h-4.59l2.83-5-5.71-9.82h4.68l3.3,6,3.09-6h4.59Z"/><path class="cls-1" d="M139,19V4.17h4.1l0,5.58h.74l4.49-5.58h4.91l-6.16,7.17L153.54,19h-5.08l-4.61-5.67h-.74l0,5.67Z"/><path class="cls-1" d="M168.93,19.27a7.53,7.53,0,0,1-7.64-7.66v0a7.45,7.45,0,0,1,2.22-5.48,7.55,7.55,0,0,1,5.56-2.22,7.25,7.25,0,0,1,6.28,3.07l-3.09,2.39A4.1,4.1,0,0,0,169,7.6a3.22,3.22,0,0,0-2.53,1.14,4.07,4.07,0,0,0-1,2.79v0a4.11,4.11,0,0,0,1,2.82A3.24,3.24,0,0,0,169,15.52a3.59,3.59,0,0,0,1.83-.44,6.12,6.12,0,0,0,1.51-1.35l3.09,2.2a8.66,8.66,0,0,1-2.72,2.47A7.48,7.48,0,0,1,168.93,19.27Z"/><path class="cls-1" d="M181.28,19V7.76h-4.42V4.16h13v3.6h-4.44V19h-4.11Z"/><path class="cls-1" d="M192.05,19V4.17h6.37a6.75,6.75,0,0,1,4.47,1.38,4.68,4.68,0,0,1,1.66,3.81v0a4.77,4.77,0,0,1-1.76,4,7.16,7.16,0,0,1-4.59,1.4h-2V19h-4.1Zm4.1-7.45h2a2.59,2.59,0,0,0,1.71-.53,1.76,1.76,0,0,0,.63-1.42v0a1.74,1.74,0,0,0-.62-1.43,2.76,2.76,0,0,0-1.75-.5h-2Z"/><path class="cls-1" d="M219.88,17a8.36,8.36,0,0,1-11.38,0,7.31,7.31,0,0,1-2.27-5.43v0a7.33,7.33,0,0,1,2.3-5.46,8.36,8.36,0,0,1,11.38,0,7.31,7.31,0,0,1,2.27,5.43v0A7.33,7.33,0,0,1,219.88,17Zm-8.39-2.64a3.53,3.53,0,0,0,2.73,1.18,3.48,3.48,0,0,0,2.7-1.15,4,4,0,0,0,1.05-2.8v0a4,4,0,0,0-1.07-2.82,3.76,3.76,0,0,0-5.43,0,4,4,0,0,0-1.06,2.8v0A4,4,0,0,0,211.49,14.39Z"/><path class="cls-1" d="M238.7,19h-4.1V10.54L228.3,19h-3.58V4.17h4.1v8.12l6.09-8.12h3.79Zm-7-15.79a4.72,4.72,0,0,1-2.87-.81A3.37,3.37,0,0,1,227.55,0H230a1.68,1.68,0,0,0,1.73,1A1.74,1.74,0,0,0,233.47,0h2.41a3.4,3.4,0,0,1-1.29,2.38,4.67,4.67,0,0,1-2.87.81Z"/><path class="cls-1" d="M130,44.66A7.53,7.53,0,0,1,122.34,37v0a7.45,7.45,0,0,1,2.22-5.48,7.55,7.55,0,0,1,5.56-2.22,7.25,7.25,0,0,1,6.28,3.07l-3.09,2.39A4.1,4.1,0,0,0,130.07,33a3.22,3.22,0,0,0-2.53,1.14,4.07,4.07,0,0,0-1,2.79v0a4.11,4.11,0,0,0,1,2.82,3.24,3.24,0,0,0,2.54,1.13,3.59,3.59,0,0,0,1.83-.44,6.12,6.12,0,0,0,1.51-1.35l3.09,2.2a8.66,8.66,0,0,1-2.72,2.47,7.46,7.46,0,0,1-3.79.87Z"/><path class="cls-1" d="M138.72,44.36V29.55h13.39V44.36H148V33.19h-5.18V44.36Z"/><path class="cls-1" d="M155.15,44.36V29.55h11.91V33h-7.85v2.27h7.11v3.24h-7.11v2.35h7.95v3.49Z"/><path class="cls-1" d="M181.35,47.56v-3.2H169.71V29.55h4.1V40.72H179V29.55h4.1V40.72h2v6.83Z"/><path class="cls-1" d="M201.25,44.36h-4.1V35.92l-6.3,8.44h-3.58V29.55h4.1v8.12l6.09-8.12h3.79Z"/><path class="cls-1" d="M203.14,44.36l6.28-14.91h4l6.3,14.91h-4.4l-1.06-2.67h-5.73l-1.06,2.67Zm6.55-5.86H213l-1.65-4.19Z"/><path class="cls-1" d="M230.32,29.45l6.2,14.91H232l-3.58-9.24-3.58,9.24h-4.44l6.18-14.91Z"/><path class="cls-1" d="M252.37,44.36h-4.1V35.92L242,44.36h-3.58V29.55h4.1v8.12l6.09-8.12h3.79Z"/><path class="cls-1" d="M262.56,44.66A7.53,7.53,0,0,1,254.92,37v0a7.45,7.45,0,0,1,2.22-5.48,7.55,7.55,0,0,1,5.56-2.22A7.25,7.25,0,0,1,269,32.33l-3.09,2.39A4.1,4.1,0,0,0,262.65,33a3.22,3.22,0,0,0-2.53,1.14,4.07,4.07,0,0,0-1,2.79v0a4.11,4.11,0,0,0,1,2.82,3.24,3.24,0,0,0,2.54,1.13,3.59,3.59,0,0,0,1.83-.44A6.12,6.12,0,0,0,266,39.12l3.09,2.2a8.66,8.66,0,0,1-2.72,2.47,7.46,7.46,0,0,1-3.79.87Z"/><path class="cls-1" d="M274.92,44.36V33.15H270.5v-3.6h13v3.6H279V44.36Z"/><path class="cls-1" d="M84.77,41.17a16.9,16.9,0,1,1,12-28.84l4.85-4.85a23.72,23.72,0,0,0-38.26,6.66,13.51,13.51,0,0,0-18.08,0,23.75,23.75,0,1,0-4.66,26.93l-4.85-4.85a16.89,16.89,0,1,1,5-11.94h6.86a6.74,6.74,0,1,1,13.47,0,23.76,23.76,0,0,0,40.57,16.8l-4.85-4.85a16.93,16.93,0,0,1-12,4.94Z"/></svg>