<svg viewBox="0 0 764 602" xmlns="http://www.w3.org/2000/svg"><path d="m551.29 514.9c-118 0-214-96-214-214s96-214 214-214a213.51 213.51 0 0 1 151.3 62.79l61.41-61.32a300.23 300.23 0 0 0 -212.71-88.24c-120 0-223.47 70.77-271.71 172.56a171.07 171.07 0 0 0 -228.91 0c-48.24-101.92-151.81-172.69-271.67-172.69-165.9 0-301 135-301 300.94s135 300.93 301 300.93c82.93 0 158.14-33.8 212.71-88.24l-61.41-61.4a213.51 213.51 0 0 1 -151.3 62.77c-118 0-214-96-214-214s96-214 214-214 214 96 214 214h86.79a85.27 85.27 0 1 1 170.54 0c0 165.85 135 300.94 301 300.94 82.93 0 158.14-33.8 212.71-88.24l-61.41-61.4a214.38 214.38 0 0 1 -151.34 62.6z" fill="#f5f5f5"/></svg>