<svg width="40" height="40" viewBox="0 0 40 40" fill="none" xmlns="http://www.w3.org/2000/svg">
<g clip-path="url(#clip0)">
<path d="M4.70605 14.1177H23.5296V16.4707H4.70605V14.1177Z" fill="#AEAEAE"/>
<path d="M4.70605 18.8235H23.5296V21.1765H4.70605V18.8235Z" fill="#AEAEAE"/>
<path d="M4.70605 23.5294H23.5296V25.8823H4.70605V23.5294Z" fill="#AEAEAE"/>
<path d="M4.70605 28.2353H23.5296V30.5883H4.70605V28.2353Z" fill="#AEAEAE"/>
<path d="M4.70605 32.9411H23.5296V35.2941H4.70605V32.9411Z" fill="#AEAEAE"/>
<path d="M14.1178 4.70587H4.70605V11.7647H14.1178V4.70587ZM11.7649 9.41176H7.059V7.05882H11.7649V9.41176Z" fill="#AEAEAE"/>
<path d="M0 0V40H28.2353V10.1009L18.1344 0L0 0ZM18.8235 4.01671L24.2186 9.41177H18.8235V4.01671ZM2.35294 37.6471V2.35294H16.4706V11.7647H25.8824V37.6471H2.35294Z" fill="#AEAEAE"/>
<path d="M36.4707 -1.52588e-05H34.1178C32.1716 -1.52588e-05 30.5884 1.58328 30.5884 3.5294V30.4795L35.2943 39.9849L40.0002 30.4795V3.5294C40.0002 1.58328 38.4169 -1.52588e-05 36.4707 -1.52588e-05ZM32.9413 28.5314V9.41175H37.6472V28.5314C36.1154 28.1363 34.4735 28.1362 32.9413 28.5314ZM34.1178 2.35293H36.4707C37.1195 2.35293 37.6472 2.88069 37.6472 3.5294V7.05881H32.9413V3.5294C32.9413 2.88069 33.469 2.35293 34.1178 2.35293ZM33.3954 30.8461C34.6057 30.5082 35.9387 30.4959 37.1932 30.8461L35.2943 34.6816L33.3954 30.8461Z" fill="#AEAEAE"/>
</g>
<defs>
<clipPath id="clip0">
<rect width="40" height="40" fill="white"/>
</clipPath>
</defs>
</svg>
