<svg width="40" height="40" viewBox="0 0 40 40" fill="none" xmlns="http://www.w3.org/2000/svg">
<path d="M34.3307 13.5027L40 10.5274L20 0.0309448L0 10.5274L10.3591 15.964V23.7934H0V33.4982H16.18V39.9691L20 38.3379L23.82 39.9691V33.4981H30.0561C29.9645 33.7986 29.9149 34.1171 29.9149 34.447C29.9149 35.1935 30.3154 36.1073 31.1753 37.3226C31.7273 38.1027 32.274 38.7263 32.297 38.7524L33.1771 39.7532L34.0572 38.7524C34.0802 38.7263 34.627 38.1027 35.1789 37.3226C36.0388 36.1073 36.4393 35.1935 36.4393 34.447C36.4393 34.117 36.3896 33.7985 36.2981 33.4981H40V23.7934H34.3307V13.5027ZM33.1766 36.0958C32.6625 35.3809 32.2836 34.7172 32.2587 34.4411C32.262 33.9374 32.6727 33.5287 33.177 33.5287C33.6815 33.5287 34.0922 33.9374 34.0954 34.4411C34.0705 34.716 33.6912 35.3799 33.1766 36.0958V36.0958ZM31.987 23.7934H29.6409V15.964L31.987 14.7327V23.7934ZM18.5238 31.1544V28.7549C19.0143 28.8105 19.5071 28.8387 20 28.8387C20.4928 28.8387 20.9856 28.8104 21.4762 28.7548V31.1543H18.5238V31.1544ZM23.82 28.2694C24.4339 28.0829 25.0384 27.8514 25.6284 27.5731L28.6722 26.1372H31.9869V31.1545H23.82V28.2694ZM20 2.67477L35.0455 10.5274L32.262 11.9802L21.5345 6.45219L20.4609 8.53563L29.7199 13.3069L20 18.3799L4.95453 10.5274L20 2.67477ZM20 21.0237L27.2972 17.194V24.1943L24.6284 25.4534C21.6871 26.841 18.3131 26.841 15.3716 25.4534L12.7029 24.1943V17.194L20 21.0237ZM2.34375 31.1544V26.1371H11.3278L14.3716 27.5731C14.9617 27.8514 15.5662 28.0829 16.18 28.2694V31.1544H2.34375ZM21.4762 36.4198L20 35.7894L18.5238 36.4198V33.4981H21.4762V36.4198ZM37.6562 26.1371V31.1544H34.3307V26.1371H37.6562Z" fill="#AEAEAE"/>
</svg>
